<svg width="169" height="50" viewBox="0 0 169 50" fill="none" xmlns="http://www.w3.org/2000/svg">
<g id="Download_on_the_App_Store_Badge" clip-path="url(#clip0_641_1861)">
<g id="Group">
<path id="Vector" d="M162.996 50H6.16125C2.9025 50 0.25 47.34 0.25 44.0837V5.9075C0.25 2.65 2.9025 0 6.16125 0H162.996C166.254 0 169 2.65 169 5.9075V44.0837C169 47.34 166.254 50 162.996 50Z" fill="#A6A6A6"/>
<path id="Vector_2" d="M167.79 44.0848C167.79 46.7298 165.648 48.8723 162.998 48.8723H6.1613C3.51255 48.8723 1.36255 46.7298 1.36255 44.0848V5.90605C1.36255 3.2623 3.51255 1.1123 6.1613 1.1123H162.996C165.648 1.1123 167.789 3.2623 167.789 5.90605L167.79 44.0848Z" fill="black"/>
<g id="Group_2">
<g id="Group_3">
<path id="Vector_3" d="M37.91 24.7302C37.8737 20.7015 41.2087 18.7415 41.3612 18.6502C39.4725 15.8965 36.545 15.5202 35.5162 15.4902C33.0575 15.2315 30.6725 16.9615 29.42 16.9615C28.1425 16.9615 26.2137 15.5152 24.135 15.5577C21.46 15.599 18.9575 17.1477 17.585 19.5527C14.7525 24.4565 16.865 31.6627 19.5787 35.6265C20.9362 37.5677 22.5225 39.7352 24.5987 39.659C26.63 39.5752 27.3887 38.364 29.84 38.364C32.2687 38.364 32.9812 39.659 35.0987 39.6102C37.2787 39.5752 38.6512 37.6602 39.9612 35.7015C41.53 33.4765 42.16 31.2852 42.185 31.1727C42.1337 31.1552 37.9512 29.559 37.91 24.7302Z" fill="white"/>
<path id="Vector_4" d="M33.9099 12.8827C35.0024 11.5165 35.7499 9.65773 35.5424 7.77148C33.9612 7.84148 31.9837 8.86523 30.8449 10.2015C29.8374 11.379 28.9374 13.309 29.1699 15.124C30.9462 15.2565 32.7699 14.2277 33.9099 12.8827Z" fill="white"/>
</g>
</g>
<g id="Group_4">
<path id="Vector_5" d="M67.3063 39.3796H64.4676L62.9126 34.4934H57.5076L56.0263 39.3796H53.2626L58.6176 22.7446H61.9251L67.3063 39.3796ZM62.4438 32.4434L61.0376 28.0996C60.8888 27.6559 60.6101 26.6109 60.1988 24.9659H60.1488C59.9851 25.6734 59.7213 26.7184 59.3588 28.0996L57.9776 32.4434H62.4438Z" fill="white"/>
<path id="Vector_6" d="M81.0775 33.2349C81.0775 35.2749 80.5262 36.8874 79.4237 38.0712C78.4362 39.1249 77.21 39.6512 75.7462 39.6512C74.1662 39.6512 73.0312 39.0837 72.34 37.9487H72.29V44.2674H69.625V31.3337C69.625 30.0512 69.5912 28.7349 69.5262 27.3849H71.87L72.0187 29.2862H72.0687C72.9575 27.8537 74.3062 27.1387 76.1162 27.1387C77.5312 27.1387 78.7125 27.6974 79.6575 28.8162C80.605 29.9362 81.0775 31.4087 81.0775 33.2349ZM78.3625 33.3324C78.3625 32.1649 78.1 31.2024 77.5725 30.4449C76.9962 29.6549 76.2225 29.2599 75.2525 29.2599C74.595 29.2599 73.9975 29.4799 73.4637 29.9137C72.9287 30.3512 72.5787 30.9224 72.415 31.6299C72.3325 31.9599 72.2912 32.2299 72.2912 32.4424V34.4424C72.2912 35.3149 72.5587 36.0512 73.0937 36.6524C73.6287 37.2537 74.3237 37.5537 75.1787 37.5537C76.1825 37.5537 76.9637 37.1662 77.5225 36.3937C78.0825 35.6199 78.3625 34.5999 78.3625 33.3324Z" fill="white"/>
<path id="Vector_7" d="M94.8737 33.2349C94.8737 35.2749 94.3225 36.8874 93.2187 38.0712C92.2325 39.1249 91.0062 39.6512 89.5425 39.6512C87.9625 39.6512 86.8275 39.0837 86.1375 37.9487H86.0875V44.2674H83.4225V31.3337C83.4225 30.0512 83.3887 28.7349 83.3237 27.3849H85.6675L85.8162 29.2862H85.8662C86.7537 27.8537 88.1025 27.1387 89.9137 27.1387C91.3275 27.1387 92.5087 27.6974 93.4562 28.8162C94.4 29.9362 94.8737 31.4087 94.8737 33.2349ZM92.1587 33.3324C92.1587 32.1649 91.895 31.2024 91.3675 30.4449C90.7912 29.6549 90.02 29.2599 89.0487 29.2599C88.39 29.2599 87.7937 29.4799 87.2587 29.9137C86.7237 30.3512 86.375 30.9224 86.2112 31.6299C86.13 31.9599 86.0875 32.2299 86.0875 32.4424V34.4424C86.0875 35.3149 86.355 36.0512 86.8875 36.6524C87.4225 37.2524 88.1175 37.5537 88.975 37.5537C89.9787 37.5537 90.76 37.1662 91.3187 36.3937C91.8787 35.6199 92.1587 34.5999 92.1587 33.3324Z" fill="white"/>
<path id="Vector_8" d="M110.299 34.7147C110.299 36.1297 109.808 37.281 108.821 38.1697C107.738 39.141 106.229 39.626 104.29 39.626C102.5 39.626 101.065 39.281 99.9788 38.5897L100.596 36.3685C101.766 37.076 103.05 37.431 104.449 37.431C105.453 37.431 106.234 37.2035 106.795 36.751C107.354 36.2985 107.633 35.691 107.633 34.9335C107.633 34.2585 107.403 33.6897 106.941 33.2285C106.483 32.7672 105.716 32.3385 104.646 31.9422C101.734 30.856 100.279 29.2647 100.279 27.1722C100.279 25.8047 100.789 24.6835 101.81 23.811C102.828 22.9372 104.185 22.501 105.883 22.501C107.396 22.501 108.654 22.7647 109.658 23.291L108.991 25.4635C108.054 24.9535 106.994 24.6985 105.808 24.6985C104.87 24.6985 104.138 24.9297 103.613 25.3897C103.169 25.801 102.946 26.3022 102.946 26.896C102.946 27.5535 103.2 28.0972 103.71 28.5247C104.154 28.9197 104.96 29.3472 106.13 29.8085C107.561 30.3847 108.613 31.0585 109.289 31.831C109.963 32.601 110.299 33.5647 110.299 34.7147Z" fill="white"/>
<path id="Vector_9" d="M119.11 29.3847H116.173V35.2085C116.173 36.6897 116.69 37.4297 117.728 37.4297C118.204 37.4297 118.599 37.3885 118.911 37.306L118.985 39.3297C118.46 39.526 117.769 39.6247 116.913 39.6247C115.86 39.6247 115.038 39.3035 114.444 38.6622C113.853 38.0197 113.555 36.9422 113.555 35.4285V29.3822H111.805V27.3822H113.555V25.186L116.173 24.396V27.3822H119.11V29.3847Z" fill="white"/>
<path id="Vector_10" d="M132.364 33.2834C132.364 35.1271 131.836 36.6409 130.784 37.8246C129.68 39.0434 128.215 39.6509 126.389 39.6509C124.629 39.6509 123.227 39.0671 122.182 37.8996C121.137 36.7321 120.615 35.2584 120.615 33.4821C120.615 31.6234 121.152 30.1009 122.231 28.9171C123.307 27.7321 124.76 27.1396 126.586 27.1396C128.346 27.1396 129.762 27.7234 130.831 28.8921C131.854 30.0259 132.364 31.4896 132.364 33.2834ZM129.599 33.3696C129.599 32.2634 129.362 31.3146 128.884 30.5234C128.325 29.5659 127.526 29.0884 126.491 29.0884C125.42 29.0884 124.606 29.5671 124.047 30.5234C123.569 31.3159 123.332 32.2796 123.332 33.4196C123.332 34.5259 123.569 35.4746 124.047 36.2646C124.624 37.2221 125.429 37.6996 126.467 37.6996C127.485 37.6996 128.284 37.2121 128.86 36.2396C129.351 35.4334 129.599 34.4746 129.599 33.3696Z" fill="white"/>
<path id="Vector_11" d="M141.026 29.7287C140.763 29.6799 140.481 29.6549 140.186 29.6549C139.249 29.6549 138.524 30.0087 138.014 30.7174C137.57 31.3424 137.348 32.1324 137.348 33.0862V39.3799H134.684L134.709 31.1624C134.709 29.7799 134.675 28.5212 134.609 27.3862H136.93L137.028 29.6812H137.101C137.383 28.8924 137.826 28.2574 138.434 27.7812C139.028 27.3524 139.669 27.1387 140.36 27.1387C140.606 27.1387 140.829 27.1562 141.026 27.1874V29.7287Z" fill="white"/>
<path id="Vector_12" d="M152.945 32.8145C152.945 33.292 152.914 33.6945 152.847 34.0232H144.852C144.884 35.2082 145.27 36.1145 146.012 36.7395C146.686 37.2982 147.557 37.5782 148.627 37.5782C149.811 37.5782 150.891 37.3895 151.862 37.0107L152.28 38.8607C151.145 39.3557 149.805 39.602 148.259 39.602C146.399 39.602 144.939 39.0545 143.876 37.9607C142.816 36.867 142.285 35.3982 142.285 33.5557C142.285 31.747 142.779 30.2407 143.767 29.0395C144.802 27.757 146.201 27.1157 147.961 27.1157C149.69 27.1157 150.999 27.757 151.887 29.0395C152.591 30.0582 152.945 31.3182 152.945 32.8145ZM150.404 32.1232C150.421 31.3332 150.247 30.6507 149.886 30.0745C149.425 29.3332 148.716 28.9632 147.762 28.9632C146.891 28.9632 146.182 29.3245 145.641 30.0495C145.197 30.6257 144.934 31.317 144.852 32.122L150.404 32.1232Z" fill="white"/>
</g>
<g id="Group_5">
<g id="Group_6">
<path id="Vector_13" d="M61.5625 12.5114C61.5625 13.9826 61.1212 15.0901 60.24 15.8339C59.4237 16.5201 58.2637 16.8639 56.7612 16.8639C56.0162 16.8639 55.3787 16.8314 54.845 16.7664V8.72762C55.5412 8.61512 56.2912 8.55762 57.1012 8.55762C58.5325 8.55762 59.6112 8.86887 60.3387 9.49137C61.1537 10.1951 61.5625 11.2014 61.5625 12.5114ZM60.1812 12.5476C60.1812 11.5939 59.9287 10.8626 59.4237 10.3526C58.9187 9.84387 58.1812 9.58887 57.21 9.58887C56.7975 9.58887 56.4462 9.61637 56.155 9.67387V15.7851C56.3162 15.8101 56.6112 15.8214 57.04 15.8214C58.0425 15.8214 58.8162 15.5426 59.3612 14.9851C59.9062 14.4276 60.1812 13.6151 60.1812 12.5476Z" fill="white"/>
<path id="Vector_14" d="M68.8862 13.7958C68.8862 14.7021 68.6275 15.4446 68.11 16.0271C67.5675 16.6258 66.8487 16.9246 65.9512 16.9246C65.0862 16.9246 64.3975 16.6383 63.8837 16.0633C63.3712 15.4896 63.115 14.7658 63.115 13.8933C63.115 12.9808 63.3787 12.2321 63.9087 11.6508C64.4387 11.0696 65.1512 10.7783 66.0487 10.7783C66.9137 10.7783 67.6087 11.0646 68.135 11.6383C68.635 12.1958 68.8862 12.9158 68.8862 13.7958ZM67.5275 13.8383C67.5275 13.2946 67.41 12.8283 67.1762 12.4396C66.9012 11.9696 66.51 11.7346 66.0012 11.7346C65.475 11.7346 65.075 11.9696 64.8 12.4396C64.565 12.8283 64.4487 13.3021 64.4487 13.8621C64.4487 14.4058 64.5662 14.8721 64.8 15.2608C65.0837 15.7308 65.4787 15.9658 65.9887 15.9658C66.4887 15.9658 66.8812 15.7271 67.1637 15.2483C67.4062 14.8521 67.5275 14.3821 67.5275 13.8383Z" fill="white"/>
<path id="Vector_15" d="M78.7063 10.8989L76.8626 16.7914H75.6626L74.8988 14.2327C74.7051 13.5939 74.5476 12.9589 74.4251 12.3289H74.4013C74.2876 12.9764 74.1301 13.6102 73.9276 14.2327L73.1163 16.7914H71.9026L70.1688 10.8989H71.5151L72.1813 13.7002C72.3426 14.3627 72.4751 14.9939 72.5813 15.5914H72.6051C72.7026 15.0989 72.8638 14.4714 73.0913 13.7127L73.9276 10.9002H74.9951L75.7963 13.6527C75.9901 14.3239 76.1476 14.9702 76.2688 15.5927H76.3051C76.3938 14.9864 76.5276 14.3402 76.7051 13.6527L77.4201 10.9002H78.7063V10.8989Z" fill="white"/>
<path id="Vector_16" d="M85.4974 16.7912H84.1874V13.4162C84.1874 12.3762 83.7924 11.8562 82.9999 11.8562C82.6111 11.8562 82.2974 11.9987 82.0536 12.2849C81.8124 12.5712 81.6899 12.9087 81.6899 13.2949V16.7899H80.3799V12.5824C80.3799 12.0649 80.3636 11.5037 80.3324 10.8962H81.4836L81.5449 11.8174H81.5811C81.7336 11.5312 81.9611 11.2949 82.2599 11.1062C82.6149 10.8862 83.0124 10.7749 83.4474 10.7749C83.9974 10.7749 84.4549 10.9524 84.8186 11.3087C85.2711 11.7449 85.4974 12.3962 85.4974 13.2612V16.7912Z" fill="white"/>
<path id="Vector_17" d="M89.11 16.7911H87.8013V8.19482H89.11V16.7911Z" fill="white"/>
<path id="Vector_18" d="M96.8226 13.7958C96.8226 14.7021 96.5639 15.4446 96.0464 16.0271C95.5039 16.6258 94.7839 16.9246 93.8876 16.9246C93.0214 16.9246 92.3326 16.6383 91.8201 16.0633C91.3076 15.4896 91.0514 14.7658 91.0514 13.8933C91.0514 12.9808 91.3151 12.2321 91.8451 11.6508C92.3751 11.0696 93.0876 10.7783 93.9839 10.7783C94.8501 10.7783 95.5439 11.0646 96.0714 11.6383C96.5714 12.1958 96.8226 12.9158 96.8226 13.7958ZM95.4626 13.8383C95.4626 13.2946 95.3451 12.8283 95.1114 12.4396C94.8376 11.9696 94.4451 11.7346 93.9376 11.7346C93.4101 11.7346 93.0101 11.9696 92.7364 12.4396C92.5014 12.8283 92.3851 13.3021 92.3851 13.8621C92.3851 14.4058 92.5026 14.8721 92.7364 15.2608C93.0201 15.7308 93.4151 15.9658 93.9251 15.9658C94.4251 15.9658 94.8164 15.7271 95.0989 15.2483C95.3426 14.8521 95.4626 14.3821 95.4626 13.8383Z" fill="white"/>
<path id="Vector_19" d="M103.162 16.7908H101.986L101.889 16.1121H101.852C101.45 16.6533 100.876 16.9246 100.131 16.9246C99.575 16.9246 99.125 16.7458 98.7862 16.3908C98.4787 16.0683 98.325 15.6671 98.325 15.1908C98.325 14.4708 98.625 13.9221 99.2287 13.5421C99.8312 13.1621 100.679 12.9758 101.77 12.9846V12.8746C101.77 12.0983 101.362 11.7108 100.546 11.7108C99.965 11.7108 99.4525 11.8571 99.01 12.1471L98.7437 11.2871C99.2912 10.9483 99.9675 10.7783 100.765 10.7783C102.305 10.7783 103.077 11.5908 103.077 13.2158V15.3858C103.077 15.9746 103.106 16.4433 103.162 16.7908ZM101.802 14.7658V13.8571C100.357 13.8321 99.635 14.2283 99.635 15.0446C99.635 15.3521 99.7175 15.5821 99.8862 15.7358C100.055 15.8896 100.27 15.9658 100.526 15.9658C100.814 15.9658 101.082 15.8746 101.327 15.6933C101.574 15.5108 101.725 15.2796 101.781 14.9958C101.795 14.9321 101.802 14.8546 101.802 14.7658Z" fill="white"/>
<path id="Vector_20" d="M110.606 16.7911H109.444L109.382 15.8448H109.346C108.975 16.5648 108.342 16.9248 107.454 16.9248C106.744 16.9248 106.152 16.6461 105.684 16.0886C105.215 15.5311 104.981 14.8073 104.981 13.9186C104.981 12.9648 105.235 12.1923 105.745 11.6023C106.239 11.0523 106.844 10.7773 107.564 10.7773C108.355 10.7773 108.909 11.0436 109.224 11.5773H109.249V8.19482H110.56V15.2036C110.56 15.7773 110.575 16.3061 110.606 16.7911ZM109.249 14.3061V13.3236C109.249 13.1536 109.236 13.0161 109.212 12.9111C109.139 12.5961 108.98 12.3311 108.739 12.1173C108.495 11.9036 108.201 11.7961 107.862 11.7961C107.374 11.7961 106.991 11.9898 106.71 12.3786C106.431 12.7673 106.29 13.2636 106.29 13.8698C106.29 14.4523 106.424 14.9248 106.692 15.2886C106.976 15.6761 107.359 15.8698 107.837 15.8698C108.267 15.8698 108.611 15.7086 108.872 15.3848C109.125 15.0861 109.249 14.7261 109.249 14.3061Z" fill="white"/>
<path id="Vector_21" d="M121.81 13.7958C121.81 14.7021 121.551 15.4446 121.034 16.0271C120.491 16.6258 119.774 16.9246 118.875 16.9246C118.011 16.9246 117.323 16.6383 116.808 16.0633C116.295 15.4896 116.039 14.7658 116.039 13.8933C116.039 12.9808 116.303 12.2321 116.833 11.6508C117.363 11.0696 118.075 10.7783 118.974 10.7783C119.838 10.7783 120.534 11.0646 121.059 11.6383C121.559 12.1958 121.81 12.9158 121.81 13.7958ZM120.453 13.8383C120.453 13.2946 120.335 12.8283 120.101 12.4396C119.825 11.9696 119.435 11.7346 118.925 11.7346C118.4 11.7346 118 11.9696 117.724 12.4396C117.489 12.8283 117.373 13.3021 117.373 13.8621C117.373 14.4058 117.49 14.8721 117.724 15.2608C118.008 15.7308 118.403 15.9658 118.913 15.9658C119.413 15.9658 119.806 15.7271 120.089 15.2483C120.33 14.8521 120.453 14.3821 120.453 13.8383Z" fill="white"/>
<path id="Vector_22" d="M128.854 16.7912H127.545V13.4162C127.545 12.3762 127.15 11.8562 126.356 11.8562C125.967 11.8562 125.654 11.9987 125.411 12.2849C125.169 12.5712 125.047 12.9087 125.047 13.2949V16.7899H123.736V12.5824C123.736 12.0649 123.721 11.5037 123.69 10.8962H124.84L124.901 11.8174H124.937C125.091 11.5312 125.319 11.2949 125.616 11.1062C125.972 10.8862 126.369 10.7749 126.805 10.7749C127.354 10.7749 127.811 10.9524 128.175 11.3087C128.629 11.7449 128.854 12.3962 128.854 13.2612V16.7912Z" fill="white"/>
<path id="Vector_23" d="M137.67 11.8799H136.227V14.7424C136.227 15.4699 136.484 15.8337 136.991 15.8337C137.226 15.8337 137.421 15.8137 137.575 15.7724L137.609 16.7662C137.35 16.8637 137.01 16.9124 136.591 16.9124C136.074 16.9124 135.671 16.7549 135.38 16.4399C135.087 16.1249 134.942 15.5949 134.942 14.8512V11.8799H134.081V10.8987H134.942V9.81865L136.226 9.43115V10.8974H137.669L137.67 11.8799Z" fill="white"/>
<path id="Vector_24" d="M144.605 16.7911H143.294V13.4411C143.294 12.3848 142.899 11.8561 142.108 11.8561C141.5 11.8561 141.085 12.1623 140.858 12.7748C140.819 12.9036 140.796 13.0611 140.796 13.2461V16.7898H139.488V8.19482H140.796V11.7461H140.821C141.234 11.0998 141.825 10.7773 142.591 10.7773C143.134 10.7773 143.583 10.9548 143.939 11.3111C144.383 11.7548 144.605 12.4148 144.605 13.2873V16.7911Z" fill="white"/>
<path id="Vector_25" d="M151.759 13.5663C151.759 13.8013 151.741 13.9988 151.71 14.1601H147.781C147.799 14.7426 147.986 15.1863 148.35 15.4938C148.683 15.7688 149.111 15.9063 149.636 15.9063C150.218 15.9063 150.748 15.8138 151.225 15.6276L151.43 16.5376C150.871 16.7801 150.214 16.9013 149.453 16.9013C148.54 16.9013 147.821 16.6326 147.301 16.0951C146.779 15.5576 146.52 14.8363 146.52 13.9313C146.52 13.0426 146.761 12.3026 147.248 11.7126C147.755 11.0826 148.441 10.7676 149.308 10.7676C150.155 10.7676 150.799 11.0826 151.234 11.7126C151.585 12.2126 151.759 12.8313 151.759 13.5663ZM150.509 13.2276C150.519 12.8388 150.433 12.5038 150.255 12.2213C150.028 11.8576 149.681 11.6751 149.213 11.6751C148.785 11.6751 148.436 11.8526 148.17 12.2088C147.953 12.4926 147.824 12.8313 147.781 13.2276H150.509Z" fill="white"/>
</g>
</g>
</g>
</g>
<defs>
<clipPath id="clip0_641_1861">
<rect width="168.75" height="50" fill="white" transform="translate(0.25)"/>
</clipPath>
</defs>
</svg>
