<svg width="518" height="505" viewBox="0 0 518 505" fill="none" xmlns="http://www.w3.org/2000/svg">
<path d="M278.444 16.7542C195.325 7.31719 36.6626 33.5356 9.88356 199.576M255.741 6C336.421 6 488.103 46.2565 509.334 199.576M9.88356 199.576C7.27603 215.743 5.91893 233.237 6.00375 252.152C6.95968 465.324 184.046 505.075 272.47 498.304C348.148 498.304 501.893 449.073 511.452 252.152C512.367 233.302 511.582 215.805 509.334 199.576M9.88356 199.576C79.0904 149.389 217.504 79.1286 217.504 199.576C217.504 320.023 217.504 325.44 217.504 313.092C216.309 324.643 210.813 345.116 198.385 334.601C182.852 321.457 192.411 313.092 244.987 313.092C297.563 313.092 305.928 316.677 289.199 334.601C272.47 352.524 272.47 326.236 272.47 299.948C272.47 278.918 272.47 224.271 272.47 199.576C273.049 147.398 321.234 74.3489 509.334 199.576M112.352 203.16C80.4875 218.296 35.8775 252.869 112.352 270.075M112.352 203.16C116.944 201.654 121.33 200.647 125.496 200.08M112.352 203.16L141.35 272.512M112.352 203.16L121.911 271.841M112.352 203.16C109.943 206.894 107.243 212.303 105.176 218.694M112.352 270.075C115.676 270.823 118.862 271.408 121.911 271.841M112.352 270.075C103.604 259.141 101.194 246.789 101.916 235.423M112.352 270.075L115.044 255.737M371.648 192.406C332.614 208.737 277.967 244.265 371.648 255.737M371.648 192.406L372.648 200.08M371.648 192.406C374.153 190.825 376.722 189.628 379.323 188.778M371.648 192.406C368.332 195.019 364.682 198.7 361.583 203.16M371.648 255.737C374.55 256.092 377.337 256.372 380.012 256.582M371.648 255.737C369.572 254.038 367.712 252.334 366.053 250.629M125.496 200.08L121.911 271.841M125.496 200.08C129.226 199.573 132.781 199.419 136.151 199.576M125.496 200.08L115.044 255.737M121.911 271.841L141.35 200.08M121.911 271.841C125.261 272.317 128.446 272.609 131.47 272.733M141.35 200.08V272.512M141.35 200.08C139.67 199.829 137.936 199.659 136.151 199.576M141.35 200.08C143.308 200.373 145.193 200.775 147.004 201.277M141.35 272.512C138.271 272.796 134.979 272.878 131.47 272.733M141.35 272.512C145.814 272.101 149.831 271.264 153.419 270.075M136.151 199.576L131.47 272.733M101.916 235.423H174.487L162.538 209.232M101.916 235.423C102.295 229.46 103.536 223.768 105.176 218.694M162.538 209.232C158.233 205.722 153.03 202.947 147.004 201.277M162.538 209.232L153.419 271.841L176.082 230.643M162.538 209.232C169.547 214.948 174.173 222.615 176.082 230.643M153.419 270.075C159.298 268.127 164.02 265.233 167.653 261.711M153.419 270.075L147.18 203.16M147.004 201.277L147.18 203.16M167.653 261.711L147.18 203.16M167.653 261.711C176.191 253.435 178.711 241.696 176.082 230.643M105.176 218.694L115.044 255.737M380.012 256.582C400.593 258.194 414.572 255.611 423.399 250.629M380.012 256.582L379.323 251.292M385.987 187.341C398.928 185.918 412.004 192.088 421.52 201.277M385.987 187.341L421.52 201.277M385.987 187.341C383.755 187.587 381.527 188.058 379.323 188.778M421.52 201.277L372.648 200.08M421.52 201.277C422.828 202.54 424.069 203.861 425.233 205.226M372.648 200.08L373.861 209.387M431.393 209.232L390.766 216.058M375.074 218.694L376.164 227.059M375.074 218.694L373.861 209.387M375.074 218.694L390.766 216.058M433.488 218.694C435.063 222.688 435.914 226.741 435.872 230.643M433.488 218.694C431.64 214.009 428.797 209.406 425.233 205.226M433.488 218.694L408.69 222.313M376.164 227.059L377.254 235.423M376.164 227.059L400.326 223.533M435.872 230.643C435.835 234.138 435.081 237.511 433.488 240.611M435.872 230.643L400.326 233.542M377.254 235.423L378.633 246.002M377.254 235.423L390.766 234.321M433.488 240.611L378.633 246.002M433.488 240.611C431.504 244.471 428.22 247.908 423.399 250.629M378.633 246.002L379.323 251.292M423.399 250.629L379.323 251.292M373.861 209.387L425.233 205.226M379.323 188.778L408.69 222.313M408.69 222.313L400.326 223.533M361.583 203.16L390.766 234.321M361.583 203.16C360.269 205.052 359.054 207.083 358.006 209.232M390.766 234.321L400.326 233.542M354.807 218.694L400.326 233.542M354.807 218.694C353.916 223.373 353.988 228.375 355.504 233.542M354.807 218.694C355.442 215.357 356.567 212.183 358.006 209.232M355.504 233.542L400.326 223.533M355.504 233.542C356.645 237.428 358.603 241.407 361.583 245.411M361.583 245.411L390.766 216.058M361.583 245.411C362.875 247.147 364.36 248.888 366.053 250.629M366.053 250.629L394.351 240.611L358.006 209.232" stroke="#D3F1E0" stroke-width="11.9491"/>
</svg>
