<svg xmlns="http://www.w3.org/2000/svg" width="199" height="221" viewBox="0 0 730 810" preserveAspectRatio="none"><defs><filter id="blur" x="-823" y="-778" width="3375" height="3061" filterUnits="userSpaceOnUse"><feGaussianBlur stdDeviation="59.7"/></filter><filter id="grain" x="-823" y="-778" width="3375" height="3061" filterUnits="userSpaceOnUse" primitiveUnits="userSpaceOnUse" color-interpolation-filters="linearRGB">
				<feTurbulence type="fractalNoise" baseFrequency=".2" numOctaves="4" seed="15" stitchTiles="no-stitch" x="0" y="0" width="730" height="810" result="turbulence"/>
				<feSpecularLighting surfaceScale="10" specularConstant="1.21" specularExponent="20" lighting-color="#fff" x="0" y="0" width="730" height="810" in="turbulence" result="specularLighting">
					<feDistantLight azimuth="3" elevation="100"/>
				</feSpecularLighting>
			</filter></defs><rect width="730" height="810" fill="#009966"/><g filter="url(#blur)"><path d="M 1515.42 1502.39 L 322.72 1646.27 L -196.91 1867.87 L -696.59 1504.23 L -703.53 870.38 L 15.12 1025.43 L 558.71 1366.18 Z" fill="#009966" fill-opacity="NaN"/><path d="M 2199.63 402.08 L 1975.97 1373.42 L 821.42 1503.33 L 287.64 1371.51 L -380.47 1194.53 L 56.33 1262.56 L -247.32 -265.45 L 654.81 -657.95 L 2115.67 -363.05 Z" fill="#009966" fill-opacity="NaN"/><path d="M 765.54 548.22 L 850.48 776.51 L 341.85 706.30 L -231.74 783.75 L -562.28 572.81 L -77.36 497.00 L 54.03 310.83 L 374.97 195.73 L 649.66 332.98 Z" fill="#1F1F1F" fill-opacity="NaN"/><path d="M 2156.67 232.74 L 2345.81 935.09 L 2148.63 1172.04 L 2156.25 803.50 L 2432.20 1058.19 L 2261.56 1169.90 L 2163.75 1044.50 L 2037.31 817.21 Z" fill="#009966" fill-opacity="NaN"/><path d="M 1033.36 1261.83 L 667.09 1181.04 L 541.95 1168.49 L 414.45 1327.98 L 270.22 1095.47 L 744.01 1526.67 Z" fill="#009966" fill-opacity="NaN"/><path d="M 2364.86 1673.99 L 2151.98 2114.75 L 1711.22 2163.27 L 1344.15 2041.06 L 1201.67 1673.99 L 1308.54 1271.30 L 1711.22 1065.34 L 1893.60 1296.23 Z" fill="#009966" fill-opacity="NaN"/></g><rect width="730" height="810" fill="#FFFFFF" filter="url(#grain)" opacity="0.21"/></svg>