<svg width="1440" height="39" viewBox="0 0 1440 39" fill="none" xmlns="http://www.w3.org/2000/svg">
<rect width="1482.01" height="78.0006" transform="translate(-21.3101)" fill="url(#paint0_linear_277_5223)"/>
<rect x="17.665" y="16.4596" width="15.1714" height="15.1714" transform="rotate(45 17.665 16.4596)" stroke="#009966" stroke-width="2"/>
<rect x="29.3734" y="28.1681" width="15.2787" height="15.2787" transform="rotate(45 29.3734 28.1681)" stroke="#009966" stroke-width="2"/>
<rect x="5.88086" y="28.2438" width="15.1714" height="15.1714" transform="rotate(45 5.88086 28.2438)" stroke="#009966" stroke-width="2"/>
<rect x="17.5891" y="39.9523" width="15.2787" height="15.2787" transform="rotate(45 17.5891 39.9523)" stroke="#009966" stroke-width="2"/>
<rect x="24.4705" y="8.65396" width="9.51915" height="9.51915" transform="rotate(45 24.4705 8.65396)" stroke="#009966" stroke-width="2"/>
<rect x="36.2729" y="20.4562" width="9.51915" height="9.51915" transform="rotate(45 36.2729 20.4562)" stroke="#009966" stroke-width="2"/>
<rect x="1.41421" width="10.2653" height="9.51915" transform="matrix(0.707107 0.707107 0.707107 -0.707107 40.2865 37.9316)" stroke="#009966" stroke-width="2"/>
<rect x="1.41421" width="10.2653" height="9.51915" transform="matrix(0.707107 0.707107 0.707107 -0.707107 2.69473 13.9517)" stroke="#009966" stroke-width="2"/>
<rect x="1.41421" width="10.2653" height="9.51915" transform="matrix(0.707107 0.707107 0.707107 -0.707107 -9.06088 25.7065)" stroke="#009966" stroke-width="2"/>
<rect x="95.6654" y="16.4596" width="15.1714" height="15.1714" transform="rotate(45 95.6654 16.4596)" stroke="#009966" stroke-width="2"/>
<rect x="107.374" y="28.1681" width="15.2787" height="15.2787" transform="rotate(45 107.374 28.1681)" stroke="#009966" stroke-width="2"/>
<rect x="83.8812" y="28.2438" width="15.1714" height="15.1714" transform="rotate(45 83.8812 28.2438)" stroke="#009966" stroke-width="2"/>
<rect x="95.5895" y="39.9523" width="15.2787" height="15.2787" transform="rotate(45 95.5895 39.9523)" stroke="#009966" stroke-width="2"/>
<rect x="102.471" y="8.65396" width="9.51915" height="9.51915" transform="rotate(45 102.471 8.65396)" stroke="#009966" stroke-width="2"/>
<rect x="114.273" y="20.4562" width="9.51915" height="9.51915" transform="rotate(45 114.273 20.4562)" stroke="#009966" stroke-width="2"/>
<rect x="1.41421" width="10.2653" height="9.51915" transform="matrix(0.707107 0.707107 0.707107 -0.707107 118.287 37.9316)" stroke="#009966" stroke-width="2"/>
<rect x="1.41421" width="10.2653" height="9.51915" transform="matrix(0.707107 0.707107 0.707107 -0.707107 80.6951 13.9517)" stroke="#009966" stroke-width="2"/>
<rect x="1.41421" width="10.2653" height="9.51915" transform="matrix(0.707107 0.707107 0.707107 -0.707107 68.9395 25.7065)" stroke="#009966" stroke-width="2"/>
<rect x="64.9159" y="31.7311" width="10.2653" height="9.51915" transform="rotate(45 64.9159 31.7311)" stroke="#009966" stroke-width="2"/>
<rect x="173.666" y="16.4596" width="15.1714" height="15.1714" transform="rotate(45 173.666 16.4596)" stroke="#009966" stroke-width="2"/>
<rect x="185.375" y="28.1681" width="15.2787" height="15.2787" transform="rotate(45 185.375 28.1681)" stroke="#009966" stroke-width="2"/>
<rect x="161.882" y="28.2438" width="15.1714" height="15.1714" transform="rotate(45 161.882 28.2438)" stroke="#009966" stroke-width="2"/>
<rect x="173.59" y="39.9523" width="15.2787" height="15.2787" transform="rotate(45 173.59 39.9523)" stroke="#009966" stroke-width="2"/>
<rect x="180.472" y="8.65396" width="9.51915" height="9.51915" transform="rotate(45 180.472 8.65396)" stroke="#009966" stroke-width="2"/>
<rect x="192.274" y="20.4562" width="9.51915" height="9.51915" transform="rotate(45 192.274 20.4562)" stroke="#009966" stroke-width="2"/>
<rect x="1.41421" width="10.2653" height="9.51915" transform="matrix(0.707107 0.707107 0.707107 -0.707107 196.288 37.9316)" stroke="#009966" stroke-width="2"/>
<rect x="1.41421" width="10.2653" height="9.51915" transform="matrix(0.707107 0.707107 0.707107 -0.707107 158.696 13.9517)" stroke="#009966" stroke-width="2"/>
<rect x="1.41421" width="10.2653" height="9.51915" transform="matrix(0.707107 0.707107 0.707107 -0.707107 146.94 25.7065)" stroke="#009966" stroke-width="2"/>
<rect x="142.917" y="31.7311" width="10.2653" height="9.51915" transform="rotate(45 142.917 31.7311)" stroke="#009966" stroke-width="2"/>
<rect x="251.667" y="16.4596" width="15.1714" height="15.1714" transform="rotate(45 251.667 16.4596)" stroke="#009966" stroke-width="2"/>
<rect x="263.375" y="28.1681" width="15.2787" height="15.2787" transform="rotate(45 263.375 28.1681)" stroke="#009966" stroke-width="2"/>
<rect x="239.883" y="28.2438" width="15.1714" height="15.1714" transform="rotate(45 239.883 28.2438)" stroke="#009966" stroke-width="2"/>
<rect x="251.591" y="39.9523" width="15.2787" height="15.2787" transform="rotate(45 251.591 39.9523)" stroke="#009966" stroke-width="2"/>
<rect x="258.472" y="8.65396" width="9.51915" height="9.51915" transform="rotate(45 258.472 8.65396)" stroke="#009966" stroke-width="2"/>
<rect x="270.275" y="20.4562" width="9.51915" height="9.51915" transform="rotate(45 270.275 20.4562)" stroke="#009966" stroke-width="2"/>
<rect x="1.41421" width="10.2653" height="9.51915" transform="matrix(0.707107 0.707107 0.707107 -0.707107 274.288 37.9316)" stroke="#009966" stroke-width="2"/>
<rect x="1.41421" width="10.2653" height="9.51915" transform="matrix(0.707107 0.707107 0.707107 -0.707107 236.696 13.9517)" stroke="#009966" stroke-width="2"/>
<rect x="1.41421" width="10.2653" height="9.51915" transform="matrix(0.707107 0.707107 0.707107 -0.707107 224.941 25.7065)" stroke="#009966" stroke-width="2"/>
<rect x="220.917" y="31.7311" width="10.2653" height="9.51915" transform="rotate(45 220.917 31.7311)" stroke="#009966" stroke-width="2"/>
<rect x="329.667" y="16.4596" width="15.1714" height="15.1714" transform="rotate(45 329.667 16.4596)" stroke="#009966" stroke-width="2"/>
<rect x="341.376" y="28.1681" width="15.2787" height="15.2787" transform="rotate(45 341.376 28.1681)" stroke="#009966" stroke-width="2"/>
<rect x="317.883" y="28.2438" width="15.1714" height="15.1714" transform="rotate(45 317.883 28.2438)" stroke="#009966" stroke-width="2"/>
<rect x="329.591" y="39.9523" width="15.2787" height="15.2787" transform="rotate(45 329.591 39.9523)" stroke="#009966" stroke-width="2"/>
<rect x="336.473" y="8.65396" width="9.51915" height="9.51915" transform="rotate(45 336.473 8.65396)" stroke="#009966" stroke-width="2"/>
<rect x="348.275" y="20.4562" width="9.51915" height="9.51915" transform="rotate(45 348.275 20.4562)" stroke="#009966" stroke-width="2"/>
<rect x="1.41421" width="10.2653" height="9.51915" transform="matrix(0.707107 0.707107 0.707107 -0.707107 352.289 37.9316)" stroke="#009966" stroke-width="2"/>
<rect x="1.41421" width="10.2653" height="9.51915" transform="matrix(0.707107 0.707107 0.707107 -0.707107 314.697 13.9517)" stroke="#009966" stroke-width="2"/>
<rect x="1.41421" width="10.2653" height="9.51915" transform="matrix(0.707107 0.707107 0.707107 -0.707107 302.941 25.7065)" stroke="#009966" stroke-width="2"/>
<rect x="298.918" y="31.7311" width="10.2653" height="9.51915" transform="rotate(45 298.918 31.7311)" stroke="#009966" stroke-width="2"/>
<rect x="407.668" y="16.4596" width="15.1714" height="15.1714" transform="rotate(45 407.668 16.4596)" stroke="#009966" stroke-width="2"/>
<rect x="419.376" y="28.1681" width="15.2787" height="15.2787" transform="rotate(45 419.376 28.1681)" stroke="#009966" stroke-width="2"/>
<rect x="395.884" y="28.2438" width="15.1714" height="15.1714" transform="rotate(45 395.884 28.2438)" stroke="#009966" stroke-width="2"/>
<rect x="407.592" y="39.9523" width="15.2787" height="15.2787" transform="rotate(45 407.592 39.9523)" stroke="#009966" stroke-width="2"/>
<rect x="414.473" y="8.65396" width="9.51915" height="9.51915" transform="rotate(45 414.473 8.65396)" stroke="#009966" stroke-width="2"/>
<rect x="426.276" y="20.4562" width="9.51915" height="9.51915" transform="rotate(45 426.276 20.4562)" stroke="#009966" stroke-width="2"/>
<rect x="1.41421" width="10.2653" height="9.51915" transform="matrix(0.707107 0.707107 0.707107 -0.707107 430.289 37.9316)" stroke="#009966" stroke-width="2"/>
<rect x="1.41421" width="10.2653" height="9.51915" transform="matrix(0.707107 0.707107 0.707107 -0.707107 392.698 13.9517)" stroke="#009966" stroke-width="2"/>
<rect x="1.41421" width="10.2653" height="9.51915" transform="matrix(0.707107 0.707107 0.707107 -0.707107 380.942 25.7065)" stroke="#009966" stroke-width="2"/>
<rect x="376.918" y="31.7311" width="10.2653" height="9.51915" transform="rotate(45 376.918 31.7311)" stroke="#009966" stroke-width="2"/>
<rect x="485.668" y="16.4596" width="15.1714" height="15.1714" transform="rotate(45 485.668 16.4596)" stroke="#009966" stroke-width="2"/>
<rect x="497.377" y="28.1681" width="15.2787" height="15.2787" transform="rotate(45 497.377 28.1681)" stroke="#009966" stroke-width="2"/>
<rect x="473.884" y="28.2438" width="15.1714" height="15.1714" transform="rotate(45 473.884 28.2438)" stroke="#009966" stroke-width="2"/>
<rect x="485.593" y="39.9523" width="15.2787" height="15.2787" transform="rotate(45 485.593 39.9523)" stroke="#009966" stroke-width="2"/>
<rect x="492.474" y="8.65396" width="9.51915" height="9.51915" transform="rotate(45 492.474 8.65396)" stroke="#009966" stroke-width="2"/>
<rect x="504.276" y="20.4562" width="9.51915" height="9.51915" transform="rotate(45 504.276 20.4562)" stroke="#009966" stroke-width="2"/>
<rect x="1.41421" width="10.2653" height="9.51915" transform="matrix(0.707107 0.707107 0.707107 -0.707107 508.29 37.9316)" stroke="#009966" stroke-width="2"/>
<rect x="1.41421" width="10.2653" height="9.51915" transform="matrix(0.707107 0.707107 0.707107 -0.707107 470.698 13.9517)" stroke="#009966" stroke-width="2"/>
<rect x="1.41421" width="10.2653" height="9.51915" transform="matrix(0.707107 0.707107 0.707107 -0.707107 458.943 25.7065)" stroke="#009966" stroke-width="2"/>
<rect x="454.919" y="31.7311" width="10.2653" height="9.51915" transform="rotate(45 454.919 31.7311)" stroke="#009966" stroke-width="2"/>
<rect x="563.669" y="16.4596" width="15.1714" height="15.1714" transform="rotate(45 563.669 16.4596)" stroke="#009966" stroke-width="2"/>
<rect x="575.378" y="28.1681" width="15.2787" height="15.2787" transform="rotate(45 575.378 28.1681)" stroke="#009966" stroke-width="2"/>
<rect x="551.885" y="28.2438" width="15.1714" height="15.1714" transform="rotate(45 551.885 28.2438)" stroke="#009966" stroke-width="2"/>
<rect x="563.593" y="39.9523" width="15.2787" height="15.2787" transform="rotate(45 563.593 39.9523)" stroke="#009966" stroke-width="2"/>
<rect x="570.475" y="8.65396" width="9.51915" height="9.51915" transform="rotate(45 570.475 8.65396)" stroke="#009966" stroke-width="2"/>
<rect x="582.277" y="20.4562" width="9.51915" height="9.51915" transform="rotate(45 582.277 20.4562)" stroke="#009966" stroke-width="2"/>
<rect x="1.41421" width="10.2653" height="9.51915" transform="matrix(0.707107 0.707107 0.707107 -0.707107 586.291 37.9316)" stroke="#009966" stroke-width="2"/>
<rect x="1.41421" width="10.2653" height="9.51915" transform="matrix(0.707107 0.707107 0.707107 -0.707107 548.699 13.9517)" stroke="#009966" stroke-width="2"/>
<rect x="1.41421" width="10.2653" height="9.51915" transform="matrix(0.707107 0.707107 0.707107 -0.707107 536.943 25.7065)" stroke="#009966" stroke-width="2"/>
<rect x="532.92" y="31.7311" width="10.2653" height="9.51915" transform="rotate(45 532.92 31.7311)" stroke="#009966" stroke-width="2"/>
<rect x="641.67" y="16.4596" width="15.1714" height="15.1714" transform="rotate(45 641.67 16.4596)" stroke="#009966" stroke-width="2"/>
<rect x="653.378" y="28.1681" width="15.2787" height="15.2787" transform="rotate(45 653.378 28.1681)" stroke="#009966" stroke-width="2"/>
<rect x="629.885" y="28.2438" width="15.1714" height="15.1714" transform="rotate(45 629.885 28.2438)" stroke="#009966" stroke-width="2"/>
<rect x="641.594" y="39.9523" width="15.2787" height="15.2787" transform="rotate(45 641.594 39.9523)" stroke="#009966" stroke-width="2"/>
<rect x="648.475" y="8.65396" width="9.51915" height="9.51915" transform="rotate(45 648.475 8.65396)" stroke="#009966" stroke-width="2"/>
<rect x="660.277" y="20.4562" width="9.51915" height="9.51915" transform="rotate(45 660.277 20.4562)" stroke="#009966" stroke-width="2"/>
<rect x="1.41421" width="10.2653" height="9.51915" transform="matrix(0.707107 0.707107 0.707107 -0.707107 664.291 37.9316)" stroke="#009966" stroke-width="2"/>
<rect x="1.41421" width="10.2653" height="9.51915" transform="matrix(0.707107 0.707107 0.707107 -0.707107 626.699 13.9517)" stroke="#009966" stroke-width="2"/>
<rect x="1.41421" width="10.2653" height="9.51915" transform="matrix(0.707107 0.707107 0.707107 -0.707107 614.944 25.7065)" stroke="#009966" stroke-width="2"/>
<rect x="610.92" y="31.7311" width="10.2653" height="9.51915" transform="rotate(45 610.92 31.7311)" stroke="#009966" stroke-width="2"/>
<rect x="719.67" y="16.4596" width="15.1714" height="15.1714" transform="rotate(45 719.67 16.4596)" stroke="#009966" stroke-width="2"/>
<rect x="731.379" y="28.1681" width="15.2787" height="15.2787" transform="rotate(45 731.379 28.1681)" stroke="#009966" stroke-width="2"/>
<rect x="707.886" y="28.2438" width="15.1714" height="15.1714" transform="rotate(45 707.886 28.2438)" stroke="#009966" stroke-width="2"/>
<rect x="719.594" y="39.9523" width="15.2787" height="15.2787" transform="rotate(45 719.594 39.9523)" stroke="#009966" stroke-width="2"/>
<rect x="726.476" y="8.65396" width="9.51915" height="9.51915" transform="rotate(45 726.476 8.65396)" stroke="#009966" stroke-width="2"/>
<rect x="738.278" y="20.4562" width="9.51915" height="9.51915" transform="rotate(45 738.278 20.4562)" stroke="#009966" stroke-width="2"/>
<rect x="1.41421" width="10.2653" height="9.51915" transform="matrix(0.707107 0.707107 0.707107 -0.707107 742.292 37.9316)" stroke="#009966" stroke-width="2"/>
<rect x="1.41421" width="10.2653" height="9.51915" transform="matrix(0.707107 0.707107 0.707107 -0.707107 704.7 13.9517)" stroke="#009966" stroke-width="2"/>
<rect x="1.41421" width="10.2653" height="9.51915" transform="matrix(0.707107 0.707107 0.707107 -0.707107 692.944 25.7065)" stroke="#009966" stroke-width="2"/>
<rect x="688.921" y="31.7311" width="10.2653" height="9.51915" transform="rotate(45 688.921 31.7311)" stroke="#009966" stroke-width="2"/>
<rect x="797.671" y="16.4596" width="15.1714" height="15.1714" transform="rotate(45 797.671 16.4596)" stroke="#009966" stroke-width="2"/>
<rect x="809.379" y="28.1681" width="15.2787" height="15.2787" transform="rotate(45 809.379 28.1681)" stroke="#009966" stroke-width="2"/>
<rect x="785.887" y="28.2438" width="15.1714" height="15.1714" transform="rotate(45 785.887 28.2438)" stroke="#009966" stroke-width="2"/>
<rect x="797.595" y="39.9523" width="15.2787" height="15.2787" transform="rotate(45 797.595 39.9523)" stroke="#009966" stroke-width="2"/>
<rect x="804.476" y="8.65396" width="9.51915" height="9.51915" transform="rotate(45 804.476 8.65396)" stroke="#009966" stroke-width="2"/>
<rect x="816.279" y="20.4562" width="9.51915" height="9.51915" transform="rotate(45 816.279 20.4562)" stroke="#009966" stroke-width="2"/>
<rect x="1.41421" width="10.2653" height="9.51915" transform="matrix(0.707107 0.707107 0.707107 -0.707107 820.292 37.9316)" stroke="#009966" stroke-width="2"/>
<rect x="1.41421" width="10.2653" height="9.51915" transform="matrix(0.707107 0.707107 0.707107 -0.707107 782.7 13.9517)" stroke="#009966" stroke-width="2"/>
<rect x="1.41421" width="10.2653" height="9.51915" transform="matrix(0.707107 0.707107 0.707107 -0.707107 770.945 25.7065)" stroke="#009966" stroke-width="2"/>
<rect x="766.921" y="31.7311" width="10.2653" height="9.51915" transform="rotate(45 766.921 31.7311)" stroke="#009966" stroke-width="2"/>
<rect x="875.671" y="16.4591" width="15.1714" height="15.1714" transform="rotate(45 875.671 16.4591)" stroke="#009966" stroke-width="2"/>
<rect x="887.379" y="28.1676" width="15.2787" height="15.2787" transform="rotate(45 887.379 28.1676)" stroke="#009966" stroke-width="2"/>
<rect x="863.887" y="28.2438" width="15.1714" height="15.1714" transform="rotate(45 863.887 28.2438)" stroke="#009966" stroke-width="2"/>
<rect x="875.595" y="39.9518" width="15.2787" height="15.2787" transform="rotate(45 875.595 39.9518)" stroke="#009966" stroke-width="2"/>
<rect x="882.477" y="8.65396" width="9.51915" height="9.51915" transform="rotate(45 882.477 8.65396)" stroke="#009966" stroke-width="2"/>
<rect x="894.279" y="20.4562" width="9.51915" height="9.51915" transform="rotate(45 894.279 20.4562)" stroke="#009966" stroke-width="2"/>
<rect x="1.41421" width="10.2653" height="9.51915" transform="matrix(0.707107 0.707107 0.707107 -0.707107 898.293 37.9316)" stroke="#009966" stroke-width="2"/>
<rect x="1.41421" width="10.2653" height="9.51915" transform="matrix(0.707107 0.707107 0.707107 -0.707107 860.701 13.9512)" stroke="#009966" stroke-width="2"/>
<rect x="1.41421" width="10.2653" height="9.51915" transform="matrix(0.707107 0.707107 0.707107 -0.707107 848.945 25.7061)" stroke="#009966" stroke-width="2"/>
<rect x="844.922" y="31.7311" width="10.2653" height="9.51915" transform="rotate(45 844.922 31.7311)" stroke="#009966" stroke-width="2"/>
<rect x="953.672" y="16.4591" width="15.1714" height="15.1714" transform="rotate(45 953.672 16.4591)" stroke="#009966" stroke-width="2"/>
<rect x="965.38" y="28.1676" width="15.2787" height="15.2787" transform="rotate(45 965.38 28.1676)" stroke="#009966" stroke-width="2"/>
<rect x="941.887" y="28.2438" width="15.1714" height="15.1714" transform="rotate(45 941.887 28.2438)" stroke="#009966" stroke-width="2"/>
<rect x="953.596" y="39.9518" width="15.2787" height="15.2787" transform="rotate(45 953.596 39.9518)" stroke="#009966" stroke-width="2"/>
<rect x="960.477" y="8.65396" width="9.51915" height="9.51915" transform="rotate(45 960.477 8.65396)" stroke="#009966" stroke-width="2"/>
<rect x="972.28" y="20.4562" width="9.51915" height="9.51915" transform="rotate(45 972.28 20.4562)" stroke="#009966" stroke-width="2"/>
<rect x="1.41421" width="10.2653" height="9.51915" transform="matrix(0.707107 0.707107 0.707107 -0.707107 976.293 37.9316)" stroke="#009966" stroke-width="2"/>
<rect x="1.41421" width="10.2653" height="9.51915" transform="matrix(0.707107 0.707107 0.707107 -0.707107 938.701 13.9512)" stroke="#009966" stroke-width="2"/>
<rect x="1.41421" width="10.2653" height="9.51915" transform="matrix(0.707107 0.707107 0.707107 -0.707107 926.946 25.7061)" stroke="#009966" stroke-width="2"/>
<rect x="922.922" y="31.7311" width="10.2653" height="9.51915" transform="rotate(45 922.922 31.7311)" stroke="#009966" stroke-width="2"/>
<rect x="1031.67" y="16.4591" width="15.1714" height="15.1714" transform="rotate(45 1031.67 16.4591)" stroke="#009966" stroke-width="2"/>
<rect x="1043.38" y="28.1676" width="15.2787" height="15.2787" transform="rotate(45 1043.38 28.1676)" stroke="#009966" stroke-width="2"/>
<rect x="1019.89" y="28.2438" width="15.1714" height="15.1714" transform="rotate(45 1019.89 28.2438)" stroke="#009966" stroke-width="2"/>
<rect x="1031.6" y="39.9518" width="15.2787" height="15.2787" transform="rotate(45 1031.6 39.9518)" stroke="#009966" stroke-width="2"/>
<rect x="1038.48" y="8.65396" width="9.51915" height="9.51915" transform="rotate(45 1038.48 8.65396)" stroke="#009966" stroke-width="2"/>
<rect x="1050.28" y="20.4562" width="9.51915" height="9.51915" transform="rotate(45 1050.28 20.4562)" stroke="#009966" stroke-width="2"/>
<rect x="1.41421" width="10.2653" height="9.51915" transform="matrix(0.707107 0.707107 0.707107 -0.707107 1054.29 37.9316)" stroke="#009966" stroke-width="2"/>
<rect x="1.41421" width="10.2653" height="9.51915" transform="matrix(0.707107 0.707107 0.707107 -0.707107 1016.7 13.9512)" stroke="#009966" stroke-width="2"/>
<rect x="1.41421" width="10.2653" height="9.51915" transform="matrix(0.707107 0.707107 0.707107 -0.707107 1004.95 25.7061)" stroke="#009966" stroke-width="2"/>
<rect x="1000.92" y="31.7311" width="10.2653" height="9.51915" transform="rotate(45 1000.92 31.7311)" stroke="#009966" stroke-width="2"/>
<rect x="1109.67" y="16.4591" width="15.1714" height="15.1714" transform="rotate(45 1109.67 16.4591)" stroke="#009966" stroke-width="2"/>
<rect x="1121.38" y="28.1676" width="15.2787" height="15.2787" transform="rotate(45 1121.38 28.1676)" stroke="#009966" stroke-width="2"/>
<rect x="1097.89" y="28.2438" width="15.1714" height="15.1714" transform="rotate(45 1097.89 28.2438)" stroke="#009966" stroke-width="2"/>
<rect x="1109.6" y="39.9518" width="15.2787" height="15.2787" transform="rotate(45 1109.6 39.9518)" stroke="#009966" stroke-width="2"/>
<rect x="1116.48" y="8.65396" width="9.51915" height="9.51915" transform="rotate(45 1116.48 8.65396)" stroke="#009966" stroke-width="2"/>
<rect x="1128.28" y="20.4562" width="9.51915" height="9.51915" transform="rotate(45 1128.28 20.4562)" stroke="#009966" stroke-width="2"/>
<rect x="1.41421" width="10.2653" height="9.51915" transform="matrix(0.707107 0.707107 0.707107 -0.707107 1132.29 37.9316)" stroke="#009966" stroke-width="2"/>
<rect x="1.41421" width="10.2653" height="9.51915" transform="matrix(0.707107 0.707107 0.707107 -0.707107 1094.7 13.9512)" stroke="#009966" stroke-width="2"/>
<rect x="1.41421" width="10.2653" height="9.51915" transform="matrix(0.707107 0.707107 0.707107 -0.707107 1082.95 25.7061)" stroke="#009966" stroke-width="2"/>
<rect x="1078.92" y="31.7311" width="10.2653" height="9.51915" transform="rotate(45 1078.92 31.7311)" stroke="#009966" stroke-width="2"/>
<rect x="1187.67" y="16.4591" width="15.1714" height="15.1714" transform="rotate(45 1187.67 16.4591)" stroke="#009966" stroke-width="2"/>
<rect x="1199.38" y="28.1676" width="15.2787" height="15.2787" transform="rotate(45 1199.38 28.1676)" stroke="#009966" stroke-width="2"/>
<rect x="1175.89" y="28.2438" width="15.1714" height="15.1714" transform="rotate(45 1175.89 28.2438)" stroke="#009966" stroke-width="2"/>
<rect x="1187.6" y="39.9518" width="15.2787" height="15.2787" transform="rotate(45 1187.6 39.9518)" stroke="#009966" stroke-width="2"/>
<rect x="1194.48" y="8.65396" width="9.51915" height="9.51915" transform="rotate(45 1194.48 8.65396)" stroke="#009966" stroke-width="2"/>
<rect x="1206.28" y="20.4562" width="9.51915" height="9.51915" transform="rotate(45 1206.28 20.4562)" stroke="#009966" stroke-width="2"/>
<rect x="1.41421" width="10.2653" height="9.51915" transform="matrix(0.707107 0.707107 0.707107 -0.707107 1210.29 37.9316)" stroke="#009966" stroke-width="2"/>
<rect x="1.41421" width="10.2653" height="9.51915" transform="matrix(0.707107 0.707107 0.707107 -0.707107 1172.7 13.9512)" stroke="#009966" stroke-width="2"/>
<rect x="1.41421" width="10.2653" height="9.51915" transform="matrix(0.707107 0.707107 0.707107 -0.707107 1160.95 25.7061)" stroke="#009966" stroke-width="2"/>
<rect x="1156.92" y="31.7311" width="10.2653" height="9.51915" transform="rotate(45 1156.92 31.7311)" stroke="#009966" stroke-width="2"/>
<rect x="1265.67" y="16.4591" width="15.1714" height="15.1714" transform="rotate(45 1265.67 16.4591)" stroke="#009966" stroke-width="2"/>
<rect x="1277.38" y="28.1676" width="15.2787" height="15.2787" transform="rotate(45 1277.38 28.1676)" stroke="#009966" stroke-width="2"/>
<rect x="1253.89" y="28.2438" width="15.1714" height="15.1714" transform="rotate(45 1253.89 28.2438)" stroke="#009966" stroke-width="2"/>
<rect x="1265.6" y="39.9518" width="15.2787" height="15.2787" transform="rotate(45 1265.6 39.9518)" stroke="#009966" stroke-width="2"/>
<rect x="1272.48" y="8.65396" width="9.51915" height="9.51915" transform="rotate(45 1272.48 8.65396)" stroke="#009966" stroke-width="2"/>
<rect x="1284.28" y="20.4562" width="9.51915" height="9.51915" transform="rotate(45 1284.28 20.4562)" stroke="#009966" stroke-width="2"/>
<rect x="1.41421" width="10.2653" height="9.51915" transform="matrix(0.707107 0.707107 0.707107 -0.707107 1288.3 37.9316)" stroke="#009966" stroke-width="2"/>
<rect x="1.41421" width="10.2653" height="9.51915" transform="matrix(0.707107 0.707107 0.707107 -0.707107 1250.7 13.9512)" stroke="#009966" stroke-width="2"/>
<rect x="1.41421" width="10.2653" height="9.51915" transform="matrix(0.707107 0.707107 0.707107 -0.707107 1238.95 25.7061)" stroke="#009966" stroke-width="2"/>
<rect x="1234.92" y="31.7311" width="10.2653" height="9.51915" transform="rotate(45 1234.92 31.7311)" stroke="#009966" stroke-width="2"/>
<rect x="1343.67" y="16.4591" width="15.1714" height="15.1714" transform="rotate(45 1343.67 16.4591)" stroke="#009966" stroke-width="2"/>
<rect x="1355.38" y="28.1676" width="15.2787" height="15.2787" transform="rotate(45 1355.38 28.1676)" stroke="#009966" stroke-width="2"/>
<rect x="1331.89" y="28.2438" width="15.1714" height="15.1714" transform="rotate(45 1331.89 28.2438)" stroke="#009966" stroke-width="2"/>
<rect x="1343.6" y="39.9518" width="15.2787" height="15.2787" transform="rotate(45 1343.6 39.9518)" stroke="#009966" stroke-width="2"/>
<rect x="1350.48" y="8.65396" width="9.51915" height="9.51915" transform="rotate(45 1350.48 8.65396)" stroke="#009966" stroke-width="2"/>
<rect x="1362.28" y="20.4562" width="9.51915" height="9.51915" transform="rotate(45 1362.28 20.4562)" stroke="#009966" stroke-width="2"/>
<rect x="1.41421" width="10.2653" height="9.51915" transform="matrix(0.707107 0.707107 0.707107 -0.707107 1366.3 37.9316)" stroke="#009966" stroke-width="2"/>
<rect x="1.41421" width="10.2653" height="9.51915" transform="matrix(0.707107 0.707107 0.707107 -0.707107 1328.7 13.9512)" stroke="#009966" stroke-width="2"/>
<rect x="1.41421" width="10.2653" height="9.51915" transform="matrix(0.707107 0.707107 0.707107 -0.707107 1316.95 25.7061)" stroke="#009966" stroke-width="2"/>
<rect x="1312.92" y="31.7311" width="10.2653" height="9.51915" transform="rotate(45 1312.92 31.7311)" stroke="#009966" stroke-width="2"/>
<rect x="1421.67" y="16.4591" width="15.1714" height="15.1714" transform="rotate(45 1421.67 16.4591)" stroke="#009966" stroke-width="2"/>
<rect x="1433.38" y="28.1676" width="15.2787" height="15.2787" transform="rotate(45 1433.38 28.1676)" stroke="#009966" stroke-width="2"/>
<rect x="1409.89" y="28.2438" width="15.1714" height="15.1714" transform="rotate(45 1409.89 28.2438)" stroke="#009966" stroke-width="2"/>
<rect x="1421.6" y="39.9518" width="15.2787" height="15.2787" transform="rotate(45 1421.6 39.9518)" stroke="#009966" stroke-width="2"/>
<rect x="1428.48" y="8.65396" width="9.51915" height="9.51915" transform="rotate(45 1428.48 8.65396)" stroke="#009966" stroke-width="2"/>
<rect x="1440.28" y="20.4562" width="9.51915" height="9.51915" transform="rotate(45 1440.28 20.4562)" stroke="#009966" stroke-width="2"/>
<rect x="1.41421" width="10.2653" height="9.51915" transform="matrix(0.707107 0.707107 0.707107 -0.707107 1406.7 13.9512)" stroke="#009966" stroke-width="2"/>
<rect x="1.41421" width="10.2653" height="9.51915" transform="matrix(0.707107 0.707107 0.707107 -0.707107 1394.95 25.7061)" stroke="#009966" stroke-width="2"/>
<rect x="1390.93" y="31.7311" width="10.2653" height="9.51915" transform="rotate(45 1390.93 31.7311)" stroke="#009966" stroke-width="2"/>
<defs>
<linearGradient id="paint0_linear_277_5223" x1="0" y1="39.0003" x2="1482.01" y2="39.0003" gradientUnits="userSpaceOnUse">
<stop stop-color="white" stop-opacity="0"/>
<stop offset="0.5" stop-color="white"/>
<stop offset="1" stop-color="white" stop-opacity="0"/>
</linearGradient>
</defs>
</svg>
