<svg width="170" height="50" viewBox="0 0 170 50" fill="none" xmlns="http://www.w3.org/2000/svg">
<g id="Google_Play_Store_badge_EN" clip-path="url(#clip0_641_1852)">
<path id="path11" d="M162.997 50H6.75208C3.31462 50 0.502197 47.1876 0.502197 43.7502V6.25086C0.502197 2.8134 3.31462 0.000976562 6.75208 0.000976562H162.997C166.434 0.000976562 169.247 2.8134 169.247 6.25086V43.7502C169.247 47.1876 166.434 50 162.997 50Z" fill="#100F0D"/>
<path id="path13" d="M162.997 0.000976562H6.75208C3.31462 0.000976562 0.502197 2.8134 0.502197 6.25086V43.7502C0.502197 47.1876 3.31462 50 6.75208 50H162.997C166.434 50 169.247 47.1876 169.247 43.7502V6.25086C169.247 2.8134 166.434 0.000976562 162.997 0.000976562ZM162.997 1.00045C165.892 1.00045 168.247 3.35593 168.247 6.25086V43.7502C168.247 46.6451 165.892 49.0006 162.997 49.0006H6.75208C3.85716 49.0006 1.5027 46.6451 1.5027 43.7502V6.25086C1.5027 3.35593 3.85716 1.00045 6.75208 1.00045H162.997Z" fill="#A2A2A1"/>
<path id="path35" d="M134.168 37.5001H136.501V21.8728H134.168V37.5001ZM155.177 27.5025L152.503 34.2773H152.423L149.648 27.5025H147.136L151.298 36.9713L148.925 42.2387H151.357L157.771 27.503L155.177 27.5025ZM141.949 35.725C141.186 35.725 140.12 35.3426 140.12 34.3979C140.12 33.1918 141.448 32.7294 142.593 32.7294C143.618 32.7294 144.101 32.9501 144.724 33.2519C144.543 34.6996 143.296 35.725 141.949 35.725ZM142.231 27.1607C140.543 27.1607 138.794 27.9048 138.07 29.5533L140.14 30.4176C140.583 29.5533 141.406 29.2721 142.271 29.2721C143.477 29.2721 144.704 29.9952 144.724 31.2823V31.4429C144.301 31.2017 143.396 30.8399 142.291 30.8399C140.059 30.8399 137.788 32.0659 137.788 34.3578C137.788 36.4487 139.618 37.7958 141.668 37.7958C143.235 37.7958 144.101 37.0921 144.642 36.2675H144.724V37.4745H146.976V31.4829C146.976 28.7085 144.904 27.1607 142.231 27.1607ZM127.816 29.4048H124.499V24.0486H127.816C129.56 24.0486 130.55 25.492 130.55 26.7266C130.55 27.9376 129.56 29.4048 127.816 29.4048ZM127.756 21.8732H122.167V37.5005H124.499V31.5802H127.756C130.341 31.5802 132.882 29.7091 132.882 26.7272C132.882 23.7458 130.341 21.8732 127.756 21.8732ZM97.2807 35.7276C95.6693 35.7276 94.3207 34.378 94.3207 32.5261C94.3207 30.6525 95.6693 29.2839 97.2807 29.2839C98.8715 29.2839 100.12 30.6526 100.12 32.5261C100.12 34.378 98.8715 35.7276 97.2807 35.7276ZM99.9589 28.3773H99.8782C99.3549 27.7532 98.3475 27.1893 97.0795 27.1893C94.4208 27.1893 91.9843 29.5257 91.9843 32.5261C91.9843 35.506 94.4208 37.8218 97.0795 37.8218C98.3475 37.8218 99.3548 37.2578 99.8782 36.6139H99.9589V37.3785C99.9589 39.4131 98.8715 40.5 97.1195 40.5C95.6903 40.5 94.8042 39.4731 94.4413 38.6074L92.4078 39.453C92.9913 40.8621 94.5415 42.5946 97.1196 42.5946C99.8588 42.5946 102.175 40.9832 102.175 37.0561V27.5114H99.959L99.9589 28.3773ZM103.786 37.4996H106.121V21.8723H103.786V37.4996ZM109.565 32.3445C109.505 30.2903 111.156 29.2434 112.344 29.2434C113.271 29.2434 114.055 29.7067 114.318 30.3708L109.565 32.3445ZM116.814 30.572C116.371 29.3846 115.022 27.1893 112.263 27.1893C109.524 27.1893 107.249 29.344 107.249 32.5056C107.249 35.486 109.505 37.8219 112.525 37.8219C114.961 37.8219 116.371 36.3322 116.956 35.466L115.143 34.2575C114.539 35.1438 113.714 35.7277 112.525 35.7277C111.337 35.7277 110.491 35.1839 109.948 34.1165L117.056 31.1766L116.814 30.572ZM60.1803 28.8206V31.0759H65.577C65.4159 32.3446 64.9931 33.2707 64.3485 33.9153C63.5629 34.7004 62.3345 35.5666 60.1802 35.5666C56.8574 35.5666 54.2599 32.8884 54.2599 29.5657C54.2599 26.243 56.8574 23.5644 60.1802 23.5644C61.9725 23.5644 63.2812 24.2694 64.2478 25.1756L65.8392 23.5844C64.4895 22.2958 62.6976 21.3091 60.1802 21.3091C55.6284 21.3091 51.8024 25.0145 51.8024 29.5657C51.8024 34.1164 55.6284 37.8219 60.1802 37.8219C62.6367 37.8219 64.4896 37.0163 65.9393 35.5061C67.4296 34.0159 67.8929 31.9216 67.8929 30.2298C67.8929 29.7068 67.8523 29.2235 67.7718 28.8206H60.1803ZM74.0291 35.7276C72.4177 35.7276 71.0282 34.3985 71.0282 32.5056C71.0282 30.5925 72.4177 29.284 74.0291 29.284C75.6399 29.284 77.0294 30.5925 77.0294 32.5056C77.0294 34.3985 75.6399 35.7276 74.0291 35.7276ZM74.0291 27.1893C71.0882 27.1893 68.6922 29.4245 68.6922 32.5056C68.6922 35.5666 71.0882 37.8219 74.0291 37.8219C76.969 37.8219 79.3654 35.5666 79.3654 32.5056C79.3654 29.4245 76.969 27.1893 74.0291 27.1893ZM85.6701 35.7276C84.0599 35.7276 82.6698 34.3985 82.6698 32.5056C82.6698 30.5925 84.06 29.284 85.6701 29.284C87.2815 29.284 88.6706 30.5925 88.6706 32.5056C88.6706 34.3985 87.2815 35.7276 85.6701 35.7276ZM85.6701 27.1893C82.7303 27.1893 80.3343 29.4245 80.3343 32.5056C80.3343 35.5666 82.7303 37.8219 85.6701 37.8219C88.6111 37.8219 91.0071 35.5666 91.0071 32.5056C91.0071 29.4245 88.6111 27.1893 85.6701 27.1893Z" fill="white"/>
<path id="path37" d="M26.3947 24.2804L13.0878 38.4049C13.0883 38.4078 13.0893 38.4102 13.0897 38.4132C13.4979 39.947 14.8987 41.0763 16.5613 41.0763C17.2259 41.0763 17.8499 40.8966 18.3851 40.5812L18.4275 40.5563L33.407 31.9125L26.3947 24.2804Z" fill="#EB3131"/>
<path id="path39" d="M39.8583 21.876L39.8455 21.8672L33.3784 18.1182L26.0924 24.6016L33.4037 31.912L39.8367 28.2002C40.9645 27.5913 41.7302 26.4023 41.7302 25.0312C41.7302 23.67 40.9749 22.4868 39.8583 21.876Z" fill="#F6B60B"/>
<path id="path41" d="M13.0858 11.5972C13.0058 11.8922 12.9637 12.2012 12.9637 12.522V37.4812C12.9637 37.8015 13.0053 38.1116 13.0863 38.4055L26.8526 24.642L13.0858 11.5972Z" fill="#5778C5"/>
<path id="path43" d="M26.4932 25.0012L33.3814 18.1151L18.4188 9.44001C17.8749 9.11427 17.2401 8.92627 16.5609 8.92627C14.8983 8.92627 13.4955 10.0577 13.0874 11.5932C13.0869 11.5947 13.0869 11.5957 13.0869 11.597L26.4932 25.0012Z" fill="#3BAD49"/>
<path id="path33" d="M59.7427 12.2268H56.0963V13.1292H58.8287C58.7545 13.8656 58.4615 14.4437 57.9674 14.8636C57.4733 15.2836 56.8424 15.4945 56.0963 15.4945C55.2779 15.4945 54.5846 15.2093 54.0163 14.643C53.4596 14.0649 53.1765 13.35 53.1765 12.4887C53.1765 11.6275 53.4596 10.9125 54.0163 10.3345C54.5846 9.76812 55.278 9.48488 56.0963 9.48488C56.5163 9.48488 56.9167 9.55713 57.2837 9.71537C57.651 9.87349 57.9459 10.0942 58.1764 10.3775L58.8697 9.68413C58.5552 9.32664 58.1569 9.05326 57.6626 8.85402C57.1685 8.65477 56.6529 8.55915 56.0962 8.55915C55.0045 8.55915 54.0788 8.93801 53.3229 9.6939C52.567 10.4516 52.1881 11.3853 52.1881 12.4887C52.1881 13.5921 52.567 14.5278 53.3229 15.2837C54.0787 16.0394 55.0045 16.4184 56.0962 16.4184C57.2427 16.4184 58.1567 16.0512 58.8599 15.3051C59.479 14.6841 59.7954 13.8442 59.7954 12.7935C59.7954 12.6157 59.774 12.4261 59.7427 12.2268ZM61.1553 8.72695V16.2503H65.5477V15.3265H62.1221V12.9399H65.2119V12.0375H62.1221V9.65279H65.5477V8.72692L61.1553 8.72695ZM71.707 9.65281V8.72695H66.5371V9.65281H68.6387V16.2503H69.6055V9.65281H71.707ZM76.3875 8.72695H75.4207V16.2503H76.3875V8.72695ZM82.7687 9.65281V8.72695H77.5989V9.65281H79.7003V16.2503H80.6671V9.65281H82.7687ZM92.5244 9.70556C91.7783 8.93796 90.8643 8.55908 89.7724 8.55908C88.6787 8.55908 87.7648 8.93795 87.0186 9.69384C86.2725 10.44 85.9054 11.3754 85.9054 12.4886C85.9054 13.6018 86.2725 14.5375 87.0186 15.2836C87.7647 16.0394 88.6787 16.4184 89.7724 16.4184C90.8544 16.4184 91.7782 16.0394 92.5244 15.2836C93.2705 14.5375 93.6376 13.6019 93.6376 12.4886C93.6376 11.3852 93.2705 10.4515 92.5244 9.70556ZM87.712 10.3344C88.2686 9.76805 88.9522 9.48481 89.7724 9.48481C90.5908 9.48481 91.2744 9.76806 91.8213 10.3344C92.3779 10.891 92.6512 11.6175 92.6512 12.4886C92.6512 13.3617 92.3779 14.0862 91.8213 14.6429C91.2744 15.2093 90.5908 15.4944 89.7724 15.4944C88.9522 15.4944 88.2686 15.2093 87.712 14.6429C87.167 14.0746 86.8936 13.3617 86.8936 12.4886C86.8936 11.6175 87.167 10.9027 87.712 10.3344ZM95.9345 11.5649L95.8935 10.1136H95.9345L99.7587 16.2503H100.768V8.72688H99.8016V13.1291L99.8426 14.5804H99.8016L96.1454 8.72688H94.9677V16.2503H95.9345V11.5649Z" fill="white" stroke="white" stroke-width="0.249995" stroke-miterlimit="10"/>
</g>
<defs>
<clipPath id="clip0_641_1852">
<rect width="168.751" height="50" fill="white" transform="translate(0.498962)"/>
</clipPath>
</defs>
</svg>
