<svg width="181" height="143" viewBox="0 0 181 143" fill="none" xmlns="http://www.w3.org/2000/svg">
<mask id="mask0_497_7063" style="mask-type:alpha" maskUnits="userSpaceOnUse" x="0" y="0" width="181" height="143">
<rect width="181" height="143" rx="16" fill="white"/>
</mask>
<g mask="url(#mask0_497_7063)">
<path d="M100.823 88.292L99.4067 56.0446M78.204 98.3788C75.7587 100.111 70.5013 107.335 69.0341 122.373C67.5669 137.412 62.3095 158.391 59.8642 167M78.204 98.3788C91.3223 87.8389 116.571 73.5554 123.776 90.4316M78.204 98.3788C79.685 87.0571 82.1484 68.2808 83.7726 56.0446M92.4173 147.896C95.9324 147.234 103.177 144.748 104.032 140.102M97.6135 137.198C99.6376 139.06 104.795 141.514 111.674 139.622M117.329 137.198C115.345 138.353 113.452 139.132 111.674 139.622M111.674 139.622L110.299 146.215C111.623 148.966 115.525 153.153 120.538 147.896C125.551 142.639 125.989 138.573 125.582 137.198C125.48 131.747 122.831 120.998 113.049 121.609C103.268 122.22 96.0343 123.188 93.6399 123.596M91.3474 108.16C102.839 104.002 123.78 100.291 126.499 113.83M126.499 120.539C126.902 117.938 126.877 115.716 126.499 113.83M125.582 98.3788C125.308 95.1868 124.686 92.5611 123.776 90.4316M123.776 90.4316C137.776 84.6339 157.921 81.1967 126.499 113.83M51 36.635C57.0844 38.0614 72.5784 40.8226 85.8787 40.4558M51 36.635C62.4929 54.9748 77.6371 57.2163 83.7726 56.0446M51 36.635C55.3812 35.1576 65.5495 30.3078 71.1737 22.7274C76.7979 15.1469 86.9663 20.2821 91.3474 23.7972C94.4963 19.6707 103.092 13.6798 112.285 22.7274C121.478 31.775 128.342 35.769 130.625 36.635M85.8787 40.4558C86.4723 37.7261 87.9905 34.5181 92.4173 34.0369C96.7578 33.5651 98.3432 37.2503 98.7471 40.4558M85.8787 40.4558C85.5296 42.0612 85.5002 43.5012 85.387 44.1237C85.3005 44.5998 84.6625 49.3406 83.7726 56.0446M98.7471 40.4558C98.8666 41.4038 98.8827 42.3098 98.8362 43.0539L99.4067 56.0446M98.7471 40.4558C104.584 40.4048 119.132 39.5694 130.625 36.635M130.625 36.635C126.319 43.8181 114.046 57.7563 99.4067 56.0446M87 49C87.5 51.5 92.5 55 97 49M88.138 43.0539C88.8512 43.6143 90.4916 44.3989 91.3474 43.0539M93.6399 43.0539C93.8437 43.5124 94.5569 44.1544 95.7795 43.0539" stroke="#193B2B" stroke-width="1.52831"/>
</g>
</svg>
