<svg width="400" height="400" viewBox="0 0 400 400" fill="none" xmlns="http://www.w3.org/2000/svg">
<path d="M200 0C310.457 0 400 89.543 400 200C400 310.457 310.457 400 200 400C89.543 400 0 310.457 0 200C0 89.543 89.543 0 200 0ZM197.587 354.502H204.253V267.835H197.587V354.502ZM142.799 213.388L106.877 323.944L125.229 310.611L154.141 221.628L185.327 244.286L196.669 236.045L96.6709 163.393H73.9873L142.799 213.388ZM139.117 284.037L132.107 305.611L200.92 255.616L294.966 323.944L287.956 302.371L212.262 247.376L243.448 224.718L239.115 211.385L139.117 284.037ZM254.711 200.053L242.799 163.391H228.779L266.976 280.945L285.327 294.279L259.044 213.386L353.089 145.058H330.405L254.711 200.053ZM47.7227 240.774L49.7832 247.114L132.208 220.333L130.148 213.993L47.7227 240.774ZM269.635 220.331L352.06 247.113L354.119 240.773L271.694 213.991L269.635 220.331ZM165 145.058H48.7529L67.1055 158.391H160.668L148.756 195.053L160.098 203.293L198.294 85.7383L191.284 64.1641L165 145.058ZM193.913 56.0742L222.825 145.058H184.277L179.944 158.392H303.549L321.901 145.058H236.845L200.923 34.501L193.913 56.0742ZM104.18 67.0166L155.122 137.132L160.515 133.213L109.573 63.0986L104.18 67.0166ZM241.33 133.214L246.723 137.132L297.665 67.0166L292.271 63.0986L241.33 133.214Z" fill="#FCDD09"/>
</svg>
